<svg width="689" height="244" viewBox="0 0 689 244" fill="none" xmlns="http://www.w3.org/2000/svg">
<g clip-path="url(#clip0_655_158576)">
<path opacity="0.1" d="M36.5 9.50098C-37.7618 -20.2274 -74.2655 31.964 -92 37.5429V324.001H689C668.31 267.139 598.454 157.564 494.603 140.539C383.5 122.326 309.909 175.963 240 157.001C126.545 126.228 81.3731 27.4645 36.5 9.50098Z" fill="#49C7EB"/>
<path opacity="0.1" d="M-28.6542 37.3336C-91.9407 9.84773 -133.129 28.8292 -151 37.3336V474H636C615.151 387.321 546.784 210.038 440.109 194.337C306.766 174.712 273.096 210.5 153.5 210.5C33.9035 210.5 35.4276 65.1649 -28.6542 37.3336Z" fill="#4AC4ED"/>
</g>
<defs>
<clipPath id="clip0_655_158576">
<rect width="689" height="244" fill="white"/>
</clipPath>
</defs>
</svg>
