<svg width="751" height="228" viewBox="0 0 751 228" fill="none" xmlns="http://www.w3.org/2000/svg">
<g clip-path="url(#clip0_655_158579)">
<path opacity="0.1" d="M716.553 226.572C790.204 232.91 840.88 216.453 856 210.459V-97.3178L6.10352e-05 -103C17.64 -41.9058 71.5975 90.4917 158.766 113.452C316.5 155 438.992 90.866 504.5 113.452C596 145 588.5 215.552 716.553 226.572Z" fill="#4AC4ED"/>
<path opacity="0.1" d="M732.963 191.807C782.419 212.505 822.035 188.227 836 181.823V-147H221C237.293 -81.728 284.681 70.4918 368.042 82.3146C451.403 94.1375 479.234 50.7703 571.738 63.5946C654.613 75.084 682.887 170.849 732.963 191.807Z" fill="#4AC4ED"/>
</g>
<defs>
<clipPath id="clip0_655_158579">
<rect width="751" height="228" fill="white"/>
</clipPath>
</defs>
</svg>
