<?xml version="1.0"?>
<svg xmlns="http://www.w3.org/2000/svg" xmlns:xlink="http://www.w3.org/1999/xlink" xmlns:svgjs="http://svgjs.com/svgjs" version="1.1" width="512" height="512" x="0" y="0" viewBox="0 0 512 512" style="enable-background:new 0 0 512 512" xml:space="preserve" class=""><g><g xmlns="http://www.w3.org/2000/svg" clip-rule="evenodd" fill-rule="evenodd"><path id="rect4884" d="m186.536 61.216h185.818c21.596 0 39.102 17.507 39.102 39.102v275.343c0 21.596-17.507 39.102-39.102 39.102h-185.818c-21.596 0-39.102-17.507-39.102-39.102v-275.343c0-21.595 17.505-39.102 39.102-39.102z" fill="#fcebdc" data-original="#e6ee9c" class=""/><g fill="#607d8b"><path id="path22947" d="m187.343 56.86c-24.445 0-44.356 19.911-44.356 44.357v273.787c0 24.445 19.911 44.357 44.356 44.357h185.037c24.445 0 44.346-19.911 44.346-44.357v-273.788c0-24.445-19.901-44.357-44.346-44.357h-185.037zm0 14.732h185.037c16.534 0 29.609 13.085 29.609 29.619v273.787c0 16.534-13.075 29.609-29.609 29.609h-185.037c-16.534 0-29.609-13.074-29.609-29.609v-273.787c0-16.534 13.074-29.619 29.609-29.619z" fill="#253c5b" data-original="#607d8b" class=""/><path id="path22949" d="m139.63 92.65c-24.445 0-44.356 19.911-44.356 44.357v273.776c0 24.445 19.911 44.357 44.356 44.357h185.027c23.939 0 43.536-19.07 44.326-42.844l.253-7.374-14.556 3.382-.419 3.496c-.532 16.028-13.405 28.602-29.599 28.602h-185.028c-16.534 0-29.619-13.085-29.619-29.619v-273.782c0-16.534 13.085-29.619 29.619-29.619h10.973-2.964v-14.738h2.964z" fill="#253c5b" data-original="#607d8b" class=""/><path id="path22951" d="m242.311 355.014v14.742h75.096v-14.742z" fill="#253c5b" data-original="#607d8b" class=""/><path id="path22953" d="m119.114 204.558v14.748h7.374 23.872-2.954v-14.748h2.954-23.872z" fill="#253c5b" data-original="#607d8b" class=""/><path id="path22955" d="m119.114 235.541v14.748h7.374 23.872-2.954v-14.748h2.954-23.872z" fill="#253c5b" data-original="#607d8b" class=""/><path id="path22957" d="m119.114 266.523v14.748h7.374 23.872-2.954v-14.748h2.954-23.872z" fill="#253c5b" data-original="#607d8b" class=""/><path id="path22959" d="m119.114 297.506v14.748h7.374 23.872-2.954v-14.748h2.954-23.872z" fill="#253c5b" data-original="#607d8b" class=""/><path id="path22961" d="m119.114 328.488v14.748h7.374 23.872-2.954v-14.748h2.954-23.872z" fill="#253c5b" data-original="#607d8b" class=""/><path id="path22963" d="m279.856 171.52c-36.688 0-66.592 29.893-66.592 66.581 0 36.694 29.903 66.592 66.592 66.592s66.592-29.903 66.592-66.592c.005-36.688-29.898-66.581-66.592-66.581zm0 14.733c28.726 0 51.859 23.123 51.859 51.849s-23.133 51.86-51.859 51.86-51.849-23.133-51.849-51.86 23.124-51.849 51.849-51.849z" fill="#253c5b" data-original="#607d8b" class=""/><path id="path22965" d="m304.797 209.732-5.215 5.215-35.893 35.893-5.215 5.215 10.431 10.42 5.205-5.205 35.893-35.893 5.215-5.215z" fill="#253c5b" data-original="#607d8b" class=""/><path id="path22967" d="m254.926 231.657-10.431 10.42 5.215 5.215 13.978 13.978 5.215 5.205 10.42-10.42-5.215-5.215-13.968-13.978z" fill="#253c5b" data-original="#607d8b" class=""/></g></g></g></svg>
