<?xml version="1.0"?>
<svg xmlns="http://www.w3.org/2000/svg" xmlns:xlink="http://www.w3.org/1999/xlink" xmlns:svgjs="http://svgjs.com/svgjs" version="1.1" width="512" height="512" x="0" y="0" viewBox="0 0 512 512" style="enable-background:new 0 0 512 512" xml:space="preserve" class=""><g><g xmlns="http://www.w3.org/2000/svg" clip-rule="evenodd" fill-rule="evenodd"><path id="rect4876" d="m186.744 61.738h185.818c21.596 0 39.102 17.507 39.102 39.102v275.343c0 21.596-17.507 39.102-39.102 39.102h-185.818c-21.596 0-39.102-17.507-39.102-39.102v-275.343c0-21.596 17.507-39.102 39.102-39.102z" fill="#fcebdc" data-original="#e6ee9c" class=""/><g fill="#607d8b"><path id="path22891" d="m187.345 56.859c-24.445 0-44.357 19.911-44.357 44.356v273.787c0 24.445 19.911 44.356 44.357 44.356h185.038c24.445 0 44.346-19.911 44.346-44.356v-273.787c0-24.445-19.901-44.356-44.346-44.356zm0 14.732h185.038c16.534 0 29.609 13.085 29.609 29.619v273.787c0 16.534-13.075 29.609-29.609 29.609h-185.038c-16.534 0-29.609-13.074-29.609-29.609v-273.787c-.005-16.529 13.075-29.619 29.609-29.619z" fill="#253c5b" data-original="#607d8b" class=""/><path id="path22893" d="m139.627 92.649c-24.445 0-44.357 19.911-44.357 44.356v273.782c0 24.445 19.911 44.356 44.357 44.356h185.027c23.944 0 43.536-19.07 44.326-42.844l.253-7.374-14.252 1.89-.728 4.988c-.532 16.028-13.405 28.602-29.599 28.602h-185.027c-16.534 0-29.619-13.085-29.619-29.619v-273.781c0-16.534 13.085-29.619 29.619-29.619h10.973-2.964v-14.738h2.964z" fill="#253c5b" data-original="#607d8b" class=""/><path id="path22895" d="m242.308 355.013v14.742h75.096v-14.742z" fill="#253c5b" data-original="#607d8b" class=""/><path id="path22897" d="m227.349 185.601c-20.779 20.779-20.779 54.689 0 75.463 20.779 20.779 54.689 20.779 75.463 0 20.779-20.779 20.779-54.689 0-75.468s-54.685-20.768-75.463.005zm10.425 10.426c15.145-15.145 39.477-15.15 54.622 0 15.145 15.145 15.145 39.482 0 54.627s-39.477 15.14-54.622 0c-15.145-15.145-15.145-39.466 0-54.612z" fill="#253c5b" data-original="#607d8b" class=""/><path id="path22899" d="m297.488 245.315-10.42 10.42 5.205 5.215 40.334 40.323 5.215 5.215 10.42-10.42-5.215-5.215-40.324-40.334z" fill="#253c5b" data-original="#607d8b" class=""/><path id="path22901" d="m119.116 204.557v14.743h7.374 23.872-2.954v-14.742h2.954-23.872-7.374z" fill="#253c5b" data-original="#607d8b" class=""/><path id="path22903" d="m119.116 235.54v14.742h7.374 23.872-2.954v-14.742h2.954-23.872z" fill="#253c5b" data-original="#607d8b" class=""/><path id="path22905" d="m119.116 266.522v14.742h7.374 23.872-2.954v-14.742h2.954-23.872z" fill="#253c5b" data-original="#607d8b" class=""/><path id="path22907" d="m119.116 297.505v14.742h7.374 23.872-2.954v-14.742h2.954-23.872z" fill="#253c5b" data-original="#607d8b" class=""/><path id="path22909" d="m119.116 328.487v14.742h7.374 23.872-2.954v-14.742h2.954-23.872z" fill="#253c5b" data-original="#607d8b" class=""/></g></g></g></svg>
